<svg xmlns="http://www.w3.org/2000/svg" width="404.736" height="360.519" viewBox="0 0 404.736 360.519">
  <g id="Grupo_426" data-name="Grupo 426" transform="translate(-1906.488 -153.388)">
    <path id="Trazado_477" data-name="Trazado 477" d="M1914.305,287c-27.234,126.773,16.536,239.307,133.8,183.972,137.213-64.747,231.515,102.748,258.75-24.026s-78.984-303.779-149.262-267.775C2042.193,238.3,1941.539,160.23,1914.305,287Z" transform="translate(0 -1.493)" fill="#e6e5e5"/>
    <g id="Grupo_424" data-name="Grupo 424" transform="translate(1965.182 153.388)">
      <path id="Trazado_478" data-name="Trazado 478" d="M2050.964,314.264s5.217-5.5-10.177,3.417c-11,6.371-48.926,68.64-64.7,95.384-23.547,39.915,22.417,61.033,61.03,82.419,0,0,8.7-3.545,9.7-5.258s-2.988-5.907-.187-7.007,1.817-3.245-.085-5.772-38.36-31.351-40.46-39.594,44.762-63.124,49.481-71.019S2066.685,330.717,2050.964,314.264Z" transform="translate(-1969.662 -164.677)" fill="#c61b17" fill-rule="evenodd"/>
      <path id="Trazado_479" data-name="Trazado 479" d="M2164.772,310.264s-5.216-5.5,10.177,3.417c11,6.371,48.925,68.64,64.7,95.384,23.547,39.915-22.417,61.033-61.029,82.419,0,0-8.7-3.545-9.7-5.258s2.988-5.907.188-7.007-1.817-3.245.086-5.772,38.359-31.351,40.458-39.594-44.761-63.124-49.481-71.019S2149.052,326.717,2164.772,310.264Z" transform="translate(-1982.791 -164.394)" fill="#c61b17" fill-rule="evenodd"/>
      <path id="Trazado_480" data-name="Trazado 480" d="M2129.719,294.642c-22.471,3.564-16.147,3.5-38.781.019l-2.61,1.277-37.561,18.342,3.93,66.635q.365,5.629.733,10.847l.149,7.048s-2.6,55.289-1.99,57.663,5.6,8.037,5.6,8.037c-.2,1.5-.409,3.1-.639,4.771,8.974,3.762,25.655,8.6,51.765,8.37,26.112.229,42.793-4.608,51.767-8.37-.23-1.673-.443-3.271-.639-4.771,0,0,4.981-5.66,5.6-8.037s-1.99-57.663-1.99-57.663l.146-7.048q.368-5.222.735-10.847l3.931-66.635Z" transform="translate(-1975.414 -163.405)" fill="#c61b17" fill-rule="evenodd"/>
      <g id="Grupo_422" data-name="Grupo 422" transform="translate(19.205 238.278)">
        <path id="Trazado_481" data-name="Trazado 481" d="M2203.932,409.854H1995.114a4.656,4.656,0,0,0-4.681,5.761l20.772,110.715a7.3,7.3,0,0,0,6.845,5.764H2181a7.3,7.3,0,0,0,6.844-5.764l20.772-110.715A4.656,4.656,0,0,0,2203.932,409.854Z" transform="translate(-1990.333 -409.854)" fill="#cccbcb" fill-rule="evenodd"/>
        <path id="Trazado_482" data-name="Trazado 482" d="M2002.376,439.639,2004.319,450l7.765,41.39,2.838,15.122a6.427,6.427,0,0,0,.557,1.661,7.3,7.3,0,0,0,6.286,4.1h162.945a7.308,7.308,0,0,0,6.847-5.761l-1.619,8.624-2.1,11.2a7.3,7.3,0,0,1-6.844,5.764H2044.408c-12.385-5.629-24.489-11.089-35.084-15.793l-1.811-9.649-3.766-20.073-13.314-70.964a4.656,4.656,0,0,1,4.681-5.761h1.673Z" transform="translate(-1990.333 -409.854)" fill="#b3b3b2" fill-rule="evenodd"/>
      </g>
      <path id="Trazado_483" data-name="Trazado 483" d="M2110.348,315.644s-6.092,6.648-3.046,86.07" transform="translate(-1979.363 -164.894)" fill="none" stroke="#fff" stroke-miterlimit="10" stroke-width="1"/>
      <path id="Trazado_484" data-name="Trazado 484" d="M2097.5,294.757l2.839-21.666h27.29l1.711,15.188c.647,5.752-1.987,8.161-6.337,10.044-2.932,1.268-13.29,14.3-13.29,14.3Z" transform="translate(-1978.728 -161.877)" fill="#facb99"/>
      <path id="Trazado_485" data-name="Trazado 485" d="M2109.536,314.6l-6.092-13.448s-4.806-1.056-7.72,1.231S2099.107,312.612,2109.536,314.6Z" transform="translate(-1978.551 -163.849)" fill="#c61b17"/>
      <path id="Trazado_486" data-name="Trazado 486" d="M2116.275,302.123l-5.63,12.562s11.5-4.516,16.819-9.086l-3.636-2.854Z" transform="translate(-1979.66 -163.936)" fill="#c61b17"/>
      <path id="Trazado_487" data-name="Trazado 487" d="M2097.5,295.789l2.838-22.7h27.291l1.854,15.476C2120.876,294.672,2108.522,295.507,2097.5,295.789Z" transform="translate(-1978.728 -161.877)" fill="#f8bd86" opacity="0.3" style="mix-blend-mode: multiply;isolation: isolate"/>
      <path id="Trazado_488" data-name="Trazado 488" d="M2129.927,289.049l9.157,6.83s1.606,4.187-2.489,16.408c0,0-14.954-4.138-19.89-11.09A32.666,32.666,0,0,0,2129.927,289.049Z" transform="translate(-1980.09 -163.008)" fill="#e52e1f"/>
      <path id="Trazado_489" data-name="Trazado 489" d="M2098.57,289.791l-11.213,7.539s-1.328,2.692,2.686,14.494c0,0,7.818-6.569,12.844-11.461C2102.886,300.362,2099.7,298,2098.57,289.791Z" transform="translate(-1977.994 -163.061)" fill="#e52e1f"/>
      <g id="Grupo_423" data-name="Grupo 423" transform="translate(85.291)">
        <path id="Trazado_490" data-name="Trazado 490" d="M2155.853,213.636c-3.872-3.358-7.944-.941-10.809,1.88a258.7,258.7,0,0,0-3.624-28.168l-43.318,2.3-17.649-.936a258.621,258.621,0,0,0-3.624,28.168c-2.864-2.822-6.937-5.238-10.808-1.88-6.706,5.815.225,25.17,9.718,23.48-.062,1.016-.106,2.038-.106,3.073,0,23,15.788,41.647,35.263,41.647s35.263-18.646,35.263-41.647q0-2.175-.187-4.3c0-.053,0-.107,0-.159C2155.549,239.037,2162.6,219.485,2155.853,213.636Z" transform="translate(-2061.597 -155.796)" fill="#facb99"/>
        <path id="Trazado_491" data-name="Trazado 491" d="M2135.3,192.7" transform="translate(-2066.7 -156.175)" fill="#133331"/>
        <path id="Trazado_492" data-name="Trazado 492" d="M2160.143,173.879l-10.737-.447s6.415-1.127,10.171-9.413c0,0-13.1,1.6-23.658-1.365s-49.8-21.276-56,3.622c0,0-8.128-5.962-16.069,7.727-6.037,10.407,1.3,39.684,1.3,39.684s5.108-5.022,9.521-.274,2.953,11.929,2.953,11.929l5.74-.542.173-20.26s7.463-.278,9.45-14.167c5.617,1.766,26.575,7.824,40.945,4.762l-6.461-2.677a40.243,40.243,0,0,0,4.725-.1c7.759,2.046,5.885,12.18,5.885,12.18l.173,20.26,5.74.542s-1.46-7.181,2.954-11.929,10.543-.748,10.543-.748,2.9-19.458-1.807-30.418A22.444,22.444,0,0,0,2160.143,173.879Z" transform="translate(-2061.463 -153.388)" fill="#2b3c4d"/>
        <path id="Trazado_493" data-name="Trazado 493" d="M2160.143,173.879l-10.737-.447s6.415-1.127,10.171-9.413c0,0-13.1,1.6-23.658-1.365s-49.8-21.276-56,3.622c0,0-8.128-5.962-16.069,7.727-6.037,10.407,1.3,39.684,1.3,39.684a9.776,9.776,0,0,1,2.812-1.8c4.3-22.433,22.309-39.7,44.663-40.762,19.9-.941,37.583,11.232,45.742,29.382.062-6.021-.463-13.09-2.683-18.265A22.444,22.444,0,0,0,2160.143,173.879Z" transform="translate(-2061.463 -153.388)" fill="#311c11" opacity="0.2" style="mix-blend-mode: multiply;isolation: isolate"/>
      </g>
    </g>
    <g id="Grupo_425" data-name="Grupo 425" transform="translate(2075.947 419.224)">
      <path id="Trazado_494" data-name="Trazado 494" d="M2127.446,456.26H2124.4c-.81-11.166-6.794-16.745-14.291-16.745s-13.482,5.579-14.292,16.745h-3.044a3.9,3.9,0,0,0-3.892,3.892v29.012a3.9,3.9,0,0,0,3.892,3.891h34.672a3.9,3.9,0,0,0,3.892-3.891V460.152A3.9,3.9,0,0,0,2127.446,456.26Zm-17.336-10.612c3.535,0,7.435,2.572,8.141,10.612h-16.282C2102.674,448.22,2106.575,445.648,2110.111,445.648Zm3.4,38.612-6.8.194.813-10.166a5.439,5.439,0,0,1-2.01-4.315c0-2.885,2.059-5.222,4.6-5.222s4.6,2.338,4.6,5.222a5.357,5.357,0,0,1-2.408,4.592Z" transform="translate(-2088.882 -439.515)" fill="gray"/>
    </g>
  </g>
</svg>
